<?xml version="1.0" encoding="UTF-8"?>
<svg id="Layer_2" data-name="Layer 2" xmlns="http://www.w3.org/2000/svg" viewBox="0 0 840.12 208.11">
  <defs>
    <style>
      .cls-1 {
        fill: #a69888;
      }
    </style>
  </defs>
  <g id="Layer_1-2" data-name="Layer 1">
    <g>
      <polygon points="294.26 185.21 297.87 185.21 297.87 204.62 313.29 204.62 313.29 207.79 294.26 207.79 294.26 185.21"/>
      <path d="M348.45,205.11c5.64,0,9.52-3.38,9.52-8.61s-3.87-8.58-9.52-8.58-9.55,3.36-9.55,8.58,3.9,8.61,9.55,8.61m0-20.23c7.94,0,13.2,4.65,13.2,11.61s-5.26,11.61-13.2,11.61-13.23-4.65-13.23-11.61,5.29-11.61,13.23-11.61"/>
      <path d="M389.12,188.24v8h8.97c4.13,0,5.77-1.29,5.77-4s-1.65-4-5.77-4h-8.97Zm-3.61-3.03h12.68c6.32,0,9.35,2.45,9.35,7.03,0,4.07-2.16,6.65-6.32,6.65,2.48,2.35,3.77,5.68,6.16,5.68h2.68v3.22h-3.51c-5.42,0-5.71-7.87-11.68-8.68h-5.74v8.68h-3.61v-22.58Z"/>
      <polygon points="432.96 185.21 452.64 185.21 452.64 188.37 436.57 188.37 436.57 194.37 450.06 194.37 450.06 197.53 436.57 197.53 436.57 204.62 452.64 204.62 452.64 207.79 432.96 207.79 432.96 185.21"/>
      <polygon points="476.83 185.21 480.44 185.21 494.18 201.75 494.7 201.75 494.7 185.21 498.31 185.21 498.31 207.79 494.7 207.79 480.99 191.27 480.44 191.27 480.44 207.79 476.83 207.79 476.83 185.21"/>
      <path d="M540.69,199.49l-4.74-11.06h-2.58l-4.74,11.06h12.06Zm-9.48-14.29h6.9l10,22.58h-3.87l-2.32-5.39h-14.52l-2.32,5.39h-3.87l10-22.58Z"/>
      <path class="cls-1" d="M47.24,108.32c46.28,.09,69.16-59.17,32.99-91.27-8.61-7.65-19.92-12.47-33-12.44H6.42V108.31H47.24ZM.43,1.73l.17-.16,.14-.11,.15-.1,.11-.06,.24-.12,.17-.09,.26-.09,.28-.08,.29-.06,.23-.03,.23-.03,.24-.02H47.23c49.63-.04,74.9,56.65,43.27,92.29-11.07,12.47-26.81,19.12-43.27,19.09H6.41v33.04c0,2.53-6.41,2.53-6.41,0V2.69l.43-.96Z"/>
      <path class="cls-1" d="M331.61,3.16l-59.61,142.5c-1.03,2.47-7.23,1.5-6.21-.93l17.48-41.78L203.38,3.53c-1.81-2.25,3.91-3.96,5.76-1.67l76.55,95.27L325.39,2.23c1.03-2.47,7.23-1.5,6.22,.93"/>
      <path class="cls-1" d="M407.07,.93c27.04,0,60.98,14.86,62.3,39.56,.13,2.51-6.26,2.64-6.39,.12-1.19-22.19-31.56-35.83-55.92-35.83-62.44,0-90.1,62.47,18.5,69.22,74.12,4.6,48.31,76.32-19.51,76.32-27.02,0-60.95-14.82-62.31-39.56-.13-2.52,6.25-2.64,6.39-.12,1.93,36.08,80.1,52.6,107.94,12.07,14.88-21.66,1.73-42.73-33.16-44.9C308.12,70.56,336.73,.93,407.07,.93"/>
      <path class="cls-1" d="M728.59,76.18v-.32s-61.56,0-61.56,0c-4.24,0-4.24-3.85,0-3.85h58.06c2.51,0,9.91-.79,9.91,1.92v.95s0,1.3,0,1.3h-.03c-1.69,65.57-76.81,97.25-118.83,46.82-35.71-42.86-12.79-116.22,43.97-122.45,16.75-1.84,33.93,2.89,48.12,14.5,2.43,1.98-2.55,4.4-5.24,2.2-41.21-33.7-97.54,.79-97.54,56.67s58.72,89.45,97.23,56.93c16.06-13.57,25.29-33.47,25.9-54.69"/>
      <path class="cls-1" d="M762.29,143.27h74.65c4.23,0,4.23,3.85,0,3.85h-77.86c-1.77,0-3.21-.86-3.21-1.92V2.69c0-2.71,7.39-1.92,9.91-1.92h71.16c4.24,0,4.24,3.85,0,3.85h-74.65V101.09h45.69c4.23,0,4.23,3.85,0,3.85h-45.69v38.34Z"/>
      <path class="cls-1" d="M585.15,149.69L537.83,11.8l-47.31,137.89c-.88,2.58-7.34,1.74-6.48-.79L534.59,1.6c.71-2.14,5.77-2.12,6.48-.03l50.55,147.33c.86,2.54-5.6,3.36-6.48,.79"/>
      <path class="cls-1" d="M205.64,149.69L158.32,11.8l-47.31,137.89c-.88,2.58-7.34,1.74-6.48-.79L155.08,1.6c.71-2.14,5.77-2.12,6.48-.03l50.55,147.33c.86,2.54-5.6,3.36-6.48,.79"/>
    </g>
  </g>
</svg>