<?xml version="1.0" encoding="UTF-8"?>
<svg id="Layer_2" data-name="Layer 2" xmlns="http://www.w3.org/2000/svg" viewBox="0 0 495.12 96.43">
  <defs>
    <style>
      .cls-1 {
        fill: #a69888;
      }
    </style>
  </defs>
  <g id="Layer_1-2" data-name="Layer 1">
    <g>
      <polygon class="cls-1" points="230.82 96.26 225.92 90.55 225.89 90.55 225.89 96.26 223.91 96.26 223.91 87.88 226.43 87.88 231.15 93.58 231.2 93.58 231.2 87.88 233.17 87.88 233.17 96.26 230.82 96.26"/>
      <path class="cls-1" d="M250.22,95.97c-.75,.37-1.82,.47-2.77,.47-1.14,0-2.24-.06-3.46-.13v-1.79c1,.11,2.29,.21,3.18,.21,.73,0,1.37-.05,1.74-.12,.44-.1,.54-.33,.54-.69,0-.38-.15-.57-.56-.7-.48-.12-1.18-.22-1.82-.33-2.15-.35-3.09-.94-3.09-2.52,0-.98,.35-1.77,1.32-2.24,.73-.35,1.74-.41,2.62-.41,1.01,0,2.03,.06,3.12,.13v1.74c-.98-.11-2.19-.2-3.16-.2-.44,0-.94,.03-1.32,.1-.4,.1-.53,.31-.53,.64,0,.35,.15,.55,.55,.65,.47,.12,1.14,.21,1.74,.31,2.15,.33,3.24,.89,3.24,2.59,0,1.02-.37,1.82-1.33,2.3"/>
      <polygon class="cls-1" points="264.23 96.26 264.23 89.55 260.84 89.55 260.84 87.88 269.8 87.88 269.8 89.55 266.4 89.55 266.4 96.26 264.23 96.26"/>
      <path class="cls-1" d="M284.18,89.48h-1.92v2.37h1.94c1.63,0,2.29-.21,2.29-1.21,0-1.09-.88-1.16-2.31-1.16m2.3,6.78l-2.24-2.89c-.2,.01-.4,.01-.6,.01h-1.38v2.88h-2.17v-8.38h4.08c1.64,0,2.82,.07,3.63,.67,.61,.45,.89,1.1,.89,2.03,0,.99-.31,1.64-.97,2.09-.31,.22-.69,.37-1.13,.45l2.5,3.13h-2.62Z"/>
      <path class="cls-1" d="M300.63,95.55c-.83-.65-1-1.6-1-2.97v-4.7h2.17v4.54c0,.71,.11,1.27,.49,1.69,.41,.45,1.15,.64,2.01,.64s1.59-.16,2.01-.62c.37-.38,.47-.92,.47-1.61v-4.62h2.13v4.7c0,1.37-.17,2.33-1.01,2.97-.97,.75-2.2,.88-3.61,.88s-2.68-.13-3.63-.88"/>
      <polygon class="cls-1" points="322.41 96.26 322.41 89.55 319.02 89.55 319.02 87.88 327.98 87.88 327.98 89.55 324.58 89.55 324.58 96.26 322.41 96.26"/>
      <path class="cls-1" d="M342.59,89.4c-2.28,0-3.31,.64-3.31,2.61s1.01,2.74,3.3,2.74,3.31-.65,3.31-2.62-1.01-2.73-3.3-2.73m3.98,6.18c-1.01,.67-2.32,.86-3.98,.86s-2.97-.18-3.99-.87c-1.15-.76-1.54-2.01-1.54-3.5s.39-2.75,1.54-3.51c1.02-.67,2.32-.84,3.98-.84s2.97,.18,3.99,.84c1.14,.77,1.54,2.03,1.54,3.51s-.4,2.74-1.54,3.51"/>
      <path class="cls-1" d="M362.77,89.48h-1.92v2.37h1.94c1.63,0,2.29-.21,2.29-1.21,0-1.09-.88-1.16-2.31-1.16m2.3,6.78l-2.24-2.89c-.2,.01-.4,.01-.6,.01h-1.38v2.88h-2.17v-8.38h4.07c1.64,0,2.83,.07,3.64,.67,.61,.45,.89,1.1,.89,2.03,0,.99-.31,1.64-.97,2.09-.31,.22-.69,.37-1.13,.45l2.5,3.13h-2.62Z"/>
      <path class="cls-1" d="M382.49,89.71h-.05l-1.54,3.14h3.13l-1.54-3.14Zm3.21,6.56l-.91-1.82h-4.64l-.88,1.82h-2.34l4.3-8.38h2.58l4.31,8.38h-2.44Z"/>
      <polygon class="cls-1" points="198.93 38.1 198.93 9.21 184.35 9.21 184.35 2.05 222.88 2.05 222.88 9.21 208.25 9.21 208.25 38.1 198.93 38.1"/>
      <polygon class="cls-1" points="230.35 38.1 230.35 2.05 260.72 2.05 260.72 9.21 239.66 9.21 239.66 16.21 259.14 16.21 259.14 23.15 239.66 23.15 239.66 30.89 261.61 30.89 261.61 38.1 230.35 38.1"/>
      <rect class="cls-1" x="271.61" y="2.05" width="9.31" height="36.05"/>
      <polygon class="cls-1" points="323.92 38.1 311.87 24.94 311.61 24.94 299.71 38.1 287.87 38.1 305.29 19.52 288.98 2.05 300.98 2.05 311.71 13.78 311.92 13.78 322.5 2.05 334.34 2.05 318.19 19.21 335.98 38.1 323.92 38.1"/>
      <polygon class="cls-1" points="342.92 38.1 342.92 2.05 373.29 2.05 373.29 9.21 352.24 9.21 352.24 16.21 371.71 16.21 371.71 23.15 352.24 23.15 352.24 30.89 374.18 30.89 374.18 38.1 342.92 38.1"/>
      <rect class="cls-1" x="384.18" y="2.05" width="9.31" height="36.05"/>
      <path class="cls-1" d="M422.86,8.94h-8.26v10.21h8.37c7,0,9.84-.89,9.84-5.21,0-4.69-3.79-5-9.95-5m9.89,29.16l-9.63-12.42c-.84,.05-1.74,.05-2.58,.05h-5.95v12.37h-9.32V2.05h17.53c7.05,0,12.16,.32,15.63,2.89,2.63,1.95,3.84,4.74,3.84,8.74,0,4.26-1.31,7.05-4.16,9-1.32,.95-2.95,1.58-4.84,1.95l10.74,13.47h-11.26Z"/>
      <path class="cls-1" d="M470.86,9.89h-.21l-6.63,13.52h13.47l-6.63-13.52Zm13.79,28.21l-3.89-7.84h-19.95l-3.79,7.84h-10.05L465.49,2.05h11.11l18.52,36.05h-10.47Z"/>
      <path class="cls-1" d="M202.41,51.29h-8.58v12.11h8.68c7.32,0,10.16-1.32,10.16-6.16,0-5.47-3.95-5.95-10.26-5.95m15.52,15.74c-3.89,2.9-8.53,3.26-17.37,3.26h-6.74v10.16h-9.31V44.39h18.16c7,0,12.21,.32,15.69,3.16,2.58,2.1,3.79,5.32,3.79,9.58,0,4.52-1.31,7.84-4.21,9.89"/>
      <rect class="cls-1" x="231.51" y="44.39" width="9.31" height="36.05"/>
      <polygon class="cls-1" points="282.35 80.44 261.3 55.87 261.14 55.87 261.14 80.44 252.61 80.44 252.61 44.39 263.46 44.39 283.77 68.92 283.98 68.92 283.98 44.39 292.46 44.39 292.46 80.44 282.35 80.44"/>
      <polygon class="cls-1" points="314.51 80.44 314.51 51.55 299.93 51.55 299.93 44.39 338.45 44.39 338.45 51.55 323.82 51.55 323.82 80.44 314.51 80.44"/>
      <path class="cls-1" d="M144.93,.6c-11.03-1.21-22.3-.22-34.02-.22-4.57,5.97-9.32,12.16-15.28,19.95,4.95,0,7.83-.01,10.71,0,10.7,.05,21.41-.13,32.1,.28,4.97,.19,9.69,2.3,9.61,8.3-.07,5.91-4.74,7.65-9.72,8.36-1.96,.27-3.98,.14-5.97,.14-17.67,0-35.34,0-53.01,0h-8.72v44.51h24.49v-24.56c16.57,0,31.75,.52,46.89-.14,18.02-.78,30.41-12.27,30.89-27.34,.49-15.25-10.32-27.35-27.98-29.28"/>
      <path class="cls-1" d="M35.96,81.92h23.49V20.02h27.63c4.84-6.47,9.19-12.29,14.41-19.28H14.6C10.17,6.59,5.79,12.37,0,20.01H35.96v61.91Z"/>
      <path class="cls-1" d="M188.57,96.43c-1.04,0-2.2-.17-3.06-.87-1-.83-1.3-2.12-1.3-3.5,0-1.19,.34-2.65,1.65-3.54,1.03-.68,2.34-.82,3.62-.82,.97,0,1.93,.06,3,.14v1.71c-.89-.07-2.03-.13-2.86-.13-2.28,0-3.19,.81-3.19,2.63s.86,2.64,2.5,2.64c1.17,0,2.43-.23,3.74-.49v1.68c-1.31,.27-2.68,.54-4.1,.54"/>
      <path class="cls-1" d="M207.81,89.4c-2.28,0-3.31,.64-3.31,2.61s1.01,2.74,3.3,2.74,3.31-.65,3.31-2.62-1.01-2.73-3.3-2.73m3.98,6.18c-1.01,.67-2.32,.86-3.98,.86s-2.97-.18-3.99-.87c-1.15-.76-1.54-2.01-1.54-3.5s.39-2.75,1.54-3.51c1.02-.67,2.33-.84,3.98-.84s2.97,.18,3.99,.84c1.14,.77,1.54,2.03,1.54,3.51s-.4,2.74-1.54,3.51"/>
      <path class="cls-1" d="M364.5,50.92c-9.79,0-14.26,2.74-14.26,11.21s4.37,11.79,14.21,11.79,14.26-2.79,14.26-11.26-4.37-11.74-14.21-11.74m17.1,26.58c-4.37,2.9-10,3.68-17.1,3.68s-12.79-.79-17.16-3.74c-4.95-3.26-6.63-8.63-6.63-15.05s1.69-11.84,6.63-15.1c4.37-2.9,10-3.63,17.1-3.63s12.79,.79,17.16,3.63c4.89,3.31,6.63,8.74,6.63,15.1s-1.74,11.79-6.63,15.11"/>
    </g>
  </g>
</svg>